<svg width="1000" height="1000" viewBox="0 0 1000 1000" fill="none" xmlns="http://www.w3.org/2000/svg">
<path d="M472.987 317.758C485.053 297.844 513.947 297.844 526.013 317.758L719.1 636.436C731.618 657.095 716.743 683.5 692.587 683.5H306.413C282.257 683.5 267.382 657.095 279.9 636.436L472.987 317.758Z" fill="#10B981"/>
<path d="M473.516 487.536C485.592 467.685 514.408 467.685 526.484 487.536L564.872 550.639C577.439 571.297 562.568 597.75 538.387 597.75H461.613C437.432 597.75 422.561 571.297 435.128 550.639L473.516 487.536Z" fill="#000000"/>
<circle cx="500" cy="274" r="140" fill="#10B981"/>
<circle cx="728" cy="680" r="140" fill="#10B981"/>
<circle cx="262" cy="687" r="140" fill="#10B981"/>
</svg>
